<?xml version="1.0" encoding="UTF-8"?>
<svg width="96px" height="38px" viewBox="0 0 96 38" version="1.1" xmlns="http://www.w3.org/2000/svg" xmlns:xlink="http://www.w3.org/1999/xlink">
    <!-- Generator: Sketch 52.5 (67469) - http://www.bohemiancoding.com/sketch -->
    <title>Logo</title>
    <desc>Created with Sketch.</desc>
    <g id="Modules" stroke="none" stroke-width="1" fill="none" fill-rule="evenodd">
        <g id="Header" transform="translate(-150.000000, -78.000000)" fill="#142D55" fill-rule="nonzero" stroke="#142D55" stroke-width="1.45728017">
            <g id="Logo/Color" transform="translate(150.000000, 78.000000)">
                <path d="M59.0166695,36.0400879 L59.0166695,10.8750661 L61.6304597,10.8750661 L61.6304597,36.0400879 L59.0166695,36.0400879 Z M62.2428796,3.47153353 C62.2428796,4.64713411 61.4454797,5.40842687 60.3235646,5.40842687 C59.1596007,5.40842687 58.3537541,4.65638379 58.3537541,3.47153353 C58.3537541,2.2916852 59.1498405,1.58400016 60.3235646,1.58400016 C61.4548118,1.58400016 62.2428796,2.30068552 62.2428796,3.47153353 Z M23.5020816,35.7790569 L20.2883758,35.7790569 L11.511243,24.4967805 C9.49482641,25.1467155 7.27058695,25.4929434 4.81698133,25.4929434 C4.59050681,25.4929434 4.35622482,25.489447 4.11222581,25.4825895 L4.11222581,35.7790569 L1.5725219,35.7790569 L1.5725219,1.58400016 L4.11222581,1.58400016 L4.11222581,23.3044639 C9.26945587,23.4476966 13.0810009,21.7992791 16.1121999,19.0104971 C18.2605608,17.0333445 19.6915099,13.836397 19.6915099,11.2621407 L19.6915099,10.8705943 L22.2312138,10.8705943 L22.2312138,11.2621407 C22.2312138,14.5359782 20.4962546,18.4206653 17.8347646,20.8694511 C16.7349543,21.8813927 15.4430027,22.7792251 13.9575377,23.5112301 L23.5020816,35.7790569 Z M31.3697325,15.7564823 C31.3624036,15.7610804 31.2737706,15.817279 31.1038338,15.925078 L29.4162603,14.4490676 L29.7576068,14.1537171 C29.8261782,14.0943856 30.0628117,13.8888371 30.0748803,13.8783698 C31.0250591,13.0542625 31.573026,12.6375535 32.2680856,12.2737842 C35.842994,10.4048685 39.6782321,10.0908082 43.6063999,11.334339 C46.2853228,12.1826618 48.0126758,14.0050989 48.7098435,16.5736442 C49.0321963,17.7600832 49.1933909,19.0569092 49.2211273,20.4768045 C49.2589657,22.4171686 49.2713671,24.2583507 49.2749863,27.2569131 C49.2752866,27.5057123 49.275489,27.704729 49.2759163,28.152534 C49.2776429,29.962056 49.2792408,30.7661486 49.2843516,31.7709794 C49.2853618,31.9774707 49.3182447,32.2035479 49.3807005,32.4584054 C49.6576116,33.5810414 50.4796777,34.072789 51.8121858,33.8811995 C51.8967162,33.8691121 51.9656761,33.8583048 52.1197926,33.833439 C52.4100202,33.7867755 52.5499368,33.7666749 52.702227,33.7508718 L53.0209765,33.7177952 L53.6451337,35.7844599 L53.3094365,35.9161553 C53.0487586,36.0184203 52.7793971,36.0873619 52.5191384,36.1143221 C50.3940445,36.3311953 49.0539479,36.0890443 47.9558073,34.9787665 C47.344509,34.3608186 47.0281604,33.6478466 46.8666289,32.6627077 C46.5510996,32.8870803 46.1823585,33.148975 46.0252335,33.2592731 C45.9381165,33.3204272 45.8542157,33.3790295 45.7725426,33.4357505 C43.4855211,35.0266342 41.0133366,36.0008057 38.3277836,36.3100206 C35.5192715,36.6330207 33.1838406,36.3303876 31.1384031,35.2124328 C28.6064087,33.8287495 27.4652216,31.718463 27.6487011,28.9714835 C27.8314669,26.2404408 29.5492789,24.3855653 32.6335379,23.1520754 C35.0769775,22.1748559 37.7690874,21.7684095 40.9904029,21.7799103 C42.0422287,21.7835597 42.883912,21.7837506 44.7779778,21.782133 C45.6201423,21.7814137 45.994462,21.781174 46.4624167,21.781174 L46.6871237,21.781174 C46.7319863,19.0280645 46.6085515,17.8225376 45.9674369,16.388872 C45.1325475,14.5216335 43.5184098,13.4056952 41.1790826,13.0534625 C38.4239218,12.6388525 36.1256894,12.8765381 34.1260274,13.9209453 C33.6355484,14.1768832 33.2544893,14.4303689 32.4458474,15.0120957 C31.9564778,15.3641522 31.7405463,15.515877 31.4670507,15.6950767 C31.4416637,15.7115788 31.4156556,15.7278833 31.3697325,15.7564823 Z M46.684657,29.6352873 C46.6847086,29.6079281 46.6847086,29.6079281 46.6850449,29.5083449 C46.6854934,29.3737663 46.6854934,29.3737663 46.6861287,29.1772746 C46.6872499,28.8273562 46.6883711,28.4559079 46.6894175,28.0790865 C46.6902809,27.76817 46.6910558,27.466824 46.69172,27.1798329 C46.6933145,26.4908548 46.6942004,25.9167723 46.6942004,25.4960083 L46.6942004,23.9431469 C46.118035,23.9522184 45.5388827,23.9589823 44.455536,23.9704292 C41.5109,24.0015429 40.1969062,24.0279898 38.5729388,24.1070799 C36.7515228,24.1959072 34.9812033,24.6126977 33.329345,25.3412715 C31.0718831,26.3370848 29.9046758,27.9522811 30.2276673,30.0514236 C30.4875793,31.7434812 32.0139245,33.3319116 33.8982929,33.7914672 C35.9180538,34.284105 37.986396,34.1821939 40.2096705,33.5417404 C41.4595034,33.1815647 42.6137546,32.7142076 43.6703909,32.1653608 C44.5798453,31.6929645 45.366415,31.1874697 46.0271321,30.6830811 C46.2570217,30.5075843 46.454378,30.3451888 46.6188266,30.2001913 C46.6451684,30.1769653 46.669011,30.1556699 46.690347,30.1363924 L46.684657,29.6352873 Z M72.0759127,15.7564823 C72.0685837,15.7610804 71.9799508,15.817279 71.8100139,15.925078 L70.1224404,14.4490676 L70.4637869,14.1537171 C70.5323583,14.0943856 70.7689919,13.8888371 70.7810605,13.8783698 C71.7312392,13.0542625 72.2792061,12.6375535 72.9742657,12.2737842 C76.5491741,10.4048685 80.3844123,10.0908082 84.3125801,11.334339 C86.9915029,12.1826618 88.718856,14.0050989 89.4160237,16.5736442 C89.7383765,17.7600832 89.899571,19.0569092 89.9273075,20.4768045 C89.9651459,22.4171686 89.9775472,24.2583507 89.9811664,27.2569131 C89.9814667,27.5057123 89.9816692,27.704729 89.9820965,28.152534 C89.9838231,29.962056 89.9854209,30.7661486 89.9905318,31.7709794 C89.9915419,31.9774707 90.0244249,32.2035479 90.0868807,32.4584054 C90.3637918,33.5810414 91.1858579,34.072789 92.518366,33.8811995 C92.6028964,33.8691121 92.6718563,33.8583048 92.8259728,33.833439 C93.1162003,33.7867755 93.256117,33.7666749 93.4084072,33.7508718 L93.7271567,33.7177952 L94.3513139,35.7844599 L94.0156166,35.9161553 C93.7549388,36.0184203 93.4855773,36.0873619 93.2253186,36.1143221 C91.1002247,36.3311953 89.7601281,36.0890443 88.6619875,34.9787665 C88.0506892,34.3608186 87.7343406,33.6478466 87.5728091,32.6627077 C87.2572798,32.8870803 86.8885387,33.148975 86.7314137,33.2592731 C86.6442967,33.3204272 86.5603958,33.3790295 86.4787228,33.4357505 C84.1917012,35.0266342 81.7195168,36.0008057 79.0339638,36.3100206 C76.2254516,36.6330207 73.8900207,36.3303876 71.8445832,35.2124328 C69.3125889,33.8287495 68.1714018,31.718463 68.3548812,28.9714835 C68.5376471,26.2404408 70.255459,24.3855653 73.3397181,23.1520754 C75.7831577,22.1748559 78.4752675,21.7684095 81.6965831,21.7799103 C82.7484089,21.7835597 83.5900922,21.7837506 85.484158,21.782133 C86.3263224,21.7814137 86.7006422,21.781174 87.1685969,21.781174 L87.3933038,21.781174 C87.4381665,19.0280645 87.3147317,17.8225376 86.6736171,16.388872 C85.8387277,14.5216335 84.2245899,13.4056952 81.8852627,13.0534625 C79.130102,12.6388525 76.8318695,12.8765381 74.8322076,13.9209453 C74.3417285,14.1768832 73.9606695,14.4303689 73.1520275,15.0120957 C72.6626579,15.3641522 72.4467264,15.515877 72.1732309,15.6950767 C72.1478438,15.7115788 72.1218357,15.7278833 72.0759127,15.7564823 Z M87.3908371,29.6352873 C87.3908888,29.6079281 87.3908888,29.6079281 87.3912251,29.5083449 C87.3916735,29.3737663 87.3916735,29.3737663 87.3923089,29.1772746 C87.39343,28.8273562 87.3945512,28.4559079 87.3955976,28.0790865 C87.396461,27.76817 87.3972359,27.466824 87.3979001,27.1798329 C87.3994947,26.4908548 87.4003805,25.9167723 87.4003805,25.4960083 L87.4003805,23.9431469 C86.8242152,23.9522184 86.2450628,23.9589823 85.1617161,23.9704292 C82.2170801,24.0015429 80.9030863,24.0279898 79.2791189,24.1070799 C77.457703,24.1959072 75.6873834,24.6126977 74.0355251,25.3412715 C71.7780633,26.3370848 70.610856,27.9522811 70.9338474,30.0514236 C71.1937595,31.7434812 72.7201046,33.3319116 74.604473,33.7914672 C76.624234,34.284105 78.6925762,34.1821939 80.9158507,33.5417404 C82.1656836,33.1815647 83.3199347,32.7142076 84.376571,32.1653608 C85.2860254,31.6929645 86.0725952,31.1874697 86.7333123,30.6830811 C86.9632018,30.5075843 87.1605581,30.3451888 87.3250068,30.2001913 C87.3513486,30.1769653 87.3751912,30.1556699 87.3965272,30.1363924 L87.3908371,29.6352873 Z" id="Combined-Shape"></path>
            </g>
        </g>
    </g>
</svg>
